<?xml version="1.0" encoding="utf-8"?>
<!-- Generator: Adobe Illustrator 22.0.1, SVG Export Plug-In . SVG Version: 6.00 Build 0)  -->
<svg version="1.1"
	 id="svg2" xmlns:cc="http://creativecommons.org/ns#" xmlns:dc="http://purl.org/dc/elements/1.1/" xmlns:inkscape="http://www.inkscape.org/namespaces/inkscape" xmlns:rdf="http://www.w3.org/1999/02/22-rdf-syntax-ns#" xmlns:sodipodi="http://sodipodi.sourceforge.net/DTD/sodipodi-0.dtd" xmlns:svg="http://www.w3.org/2000/svg"
	 xmlns="http://www.w3.org/2000/svg" xmlns:xlink="http://www.w3.org/1999/xlink" x="0px" y="0px" viewBox="0 0 500 500"
	 style="enable-background:new 0 0 500 500;" xml:space="preserve">
<style type="text/css">
	.st0{fill:#3E4851;}
</style>
<g id="layer1" transform="translate(-207.5,-69.21875)">
	<g id="layer1-7" transform="translate(55.728928,-28.316651)">
	</g>
	<path id="rect3003" class="st0" d="M261.5,69.2c-29.9,0-54,24.1-54,54v392c0,29.9,24.1,54,54,54h392c29.9,0,54-24.1,54-54v-392
		c0-29.9-24.1-54-54-54L261.5,69.2L261.5,69.2z M337.8,178c14.4,0,33,10,38.7,23.4c7.4-1.7,15.1-2.8,23.1-2.8H523
		c8,0,15.6,1.1,23.1,2.8c5.7-13.3,24.3-23.4,38.7-23.4c17,0,20.6,13.9,20.6,30.9v31.4c12.8,17.1,20.6,38.2,20.6,61.2v41.2
		c0,56.8-46.1,102.9-102.9,102.9H399.5c-56.8,0-102.9-46.1-102.9-102.9v-41.2c0-23,7.8-44.1,20.6-61.2v-31.4
		C317.2,191.9,320.7,178,337.8,178L337.8,178z M399.5,301.5c-34.1,0-61.8,27.7-61.8,61.8s27.7,61.8,61.8,61.8H523
		c34.1,0,61.8-27.7,61.8-61.8s-27.7-61.8-61.8-61.8H399.5z M399.5,322.1c17,0,20.6,13.9,20.6,30.9v10.9c0,17-3.5,30.9-20.6,30.9
		s-20.6-13.9-20.6-30.9V353C378.9,336,382.5,322.1,399.5,322.1z M523,322.1c17,0,20.6,13.9,20.6,30.9v10.9c0,17-3.5,30.9-20.6,30.9
		c-17,0-20.6-13.9-20.6-30.9V353C502.4,336,506,322.1,523,322.1z"/>
	<g id="g3006" transform="matrix(0.17871094,0,0,0.17871094,245.33672,459.25678)">
	</g>
</g>
</svg>
