<?xml version="1.0" encoding="utf-8"?>
<!-- Generator: Adobe Illustrator 22.0.1, SVG Export Plug-In . SVG Version: 6.00 Build 0)  -->
<svg version="1.1"
	 id="svg2" xmlns:cc="http://creativecommons.org/ns#" xmlns:dc="http://purl.org/dc/elements/1.1/" xmlns:inkscape="http://www.inkscape.org/namespaces/inkscape" xmlns:rdf="http://www.w3.org/1999/02/22-rdf-syntax-ns#" xmlns:sodipodi="http://sodipodi.sourceforge.net/DTD/sodipodi-0.dtd" xmlns:svg="http://www.w3.org/2000/svg"
	 xmlns="http://www.w3.org/2000/svg" xmlns:xlink="http://www.w3.org/1999/xlink" x="0px" y="0px" viewBox="0 0 500 500"
	 style="enable-background:new 0 0 500 500;" xml:space="preserve">
<style type="text/css">
	.st0{fill:#3E4851;}
</style>
<g id="layer1" transform="translate(0,-552.36218)">
	<path id="rect2995" class="st0" d="M50,552.4c-27.7,0-50,22.3-50,50v400c0,27.7,22.3,50,50,50h400c27.7,0,50-22.3,50-50v-400
		c0-27.7-22.3-50-50-50H50z M213.1,605.5h56.3V697h91.5v70.7h-91.5v101.4c0,23-0.3,36.2,2.2,42.7c2.4,6.5,8.5,13.2,15.1,17.1
		c8.8,5.3,18.8,7.9,30,7.9c20,0,40-6.5,59.8-19.5v62.4c-16.9,8-32.2,13.6-45.9,16.8c-13.7,3.2-28.5,4.8-44.5,4.8
		c-18.1,0-28.8-2.3-42.7-6.8c-13.9-4.6-25.8-11.1-35.6-19.5c-9.8-8.5-16.6-17.5-20.4-27c-3.8-9.5-5.7-23.3-5.7-41.4V767.7h-53.8
		v-56.1c15.5-5,33.5-12.3,44.6-21.7c11.1-9.5,20-20.8,26.7-34C206,642.7,210.6,625.9,213.1,605.5z"/>
</g>
</svg>
