<?xml version="1.0" encoding="utf-8"?>
<!-- Generator: Adobe Illustrator 22.0.1, SVG Export Plug-In . SVG Version: 6.00 Build 0)  -->
<svg version="1.1"
	 id="svg2" xmlns:cc="http://creativecommons.org/ns#" xmlns:dc="http://purl.org/dc/elements/1.1/" xmlns:inkscape="http://www.inkscape.org/namespaces/inkscape" xmlns:rdf="http://www.w3.org/1999/02/22-rdf-syntax-ns#" xmlns:sodipodi="http://sodipodi.sourceforge.net/DTD/sodipodi-0.dtd" xmlns:svg="http://www.w3.org/2000/svg"
	 xmlns="http://www.w3.org/2000/svg" xmlns:xlink="http://www.w3.org/1999/xlink" x="0px" y="0px" viewBox="0 0 500 500"
	 style="enable-background:new 0 0 500 500;" xml:space="preserve">
<style type="text/css">
	.st0{fill:#3E4851;}
</style>
<g id="layer1" transform="translate(0,-552.36218)">
	<g id="layer1-9" transform="translate(-1068,-236)">
		<path id="rect2995-4" class="st0" d="M1118,788.4c-27.7,0-50,22.3-50,50v400c0,27.7,22.3,50,50,50h400c27.7,0,50-22.3,50-50v-400
			c0-27.7-22.3-50-50-50H1118z M1207.9,894.1c19.2,0,34.7,15.5,34.7,34.7s-15.5,34.8-34.7,34.8s-34.7-15.6-34.7-34.8
			S1188.7,894.1,1207.9,894.1z M1389.8,984.6c3.9,0,7.9,0.2,13.3,0.5c26.2,1.6,55.4,22.1,56.2,70c0.7,39.5,0.5,102.1,0.5,125.1
			h-59.5c0-23.6,0.3-72.3,0.3-106.7c0-15.7-7-36.8-32.1-36.8c-27.6,0-34.3,25.6-34.3,36.8c0,33.1-0.3,85.8-0.3,106.7h-59.2
			c0-35.3,0.4-156.7,0.4-190.9c30.6,0,45.2-0.1,56.4-0.1c0,11.2-0.1,18.7-0.1,26.9c9.3-18.9,34.8-30.7,45.8-31.2
			C1382,984.7,1385.9,984.6,1389.8,984.6z M1178.2,990.1h59.3v190.1h-59.3V990.1z"/>
	</g>
</g>
</svg>
